<svg width="20" height="20" viewBox="0 0 20 20" fill="none" xmlns="http://www.w3.org/2000/svg">
<path d="M13.1 2C15.8062 2 18 4.1938 18 6.9V13.1C18 15.8062 15.8062 18 13.1 18H6.9C4.1938 18 2 15.8062 2 13.1V6.9C2 4.1938 4.1938 2 6.9 2H13.1ZM13.1 3.8L9.524 3.799L9.52407 3.801H8.50407C7.67564 3.801 7.00407 4.47257 7.00407 5.301V14.7068C7.00407 15.4936 7.60978 16.1389 8.38031 16.2018L13.1 16.2C14.8121 16.2 16.2 14.8121 16.2 13.1V6.9C16.2 5.18792 14.8121 3.8 13.1 3.8Z" fill="white"/>
<path fill-rule="evenodd" clip-rule="evenodd" d="M9 7C9 6.44772 9.44772 6 10 6H13C13.5523 6 14 6.44772 14 7C14 7.55228 13.5523 8 13 8H10C9.44772 8 9 7.55228 9 7Z" fill="white"/>
</svg>
