<svg width="16" height="16" viewBox="0 0 16 16" fill="none" xmlns="http://www.w3.org/2000/svg">
<path d="M10.4421 9.86409C12.962 9.86409 15.0431 11.7422 15.4732 14.2036C15.4859 14.2761 15.4941 14.3982 15.4977 14.57C15.5143 15.343 14.9011 15.9831 14.128 15.9997C14.1181 15.9999 14.1081 16 14.0981 16H1.90217C1.12895 16 0.502136 15.3732 0.502136 14.6L0.502497 14.5682C0.506182 14.4059 0.513951 14.2902 0.525805 14.221C0.937514 11.8187 2.92122 9.9678 5.35359 9.8683L5.55992 9.86409H10.4421ZM10.8624 1.24479C12.4357 2.90452 12.4357 5.59547 10.8624 7.25521C9.28913 8.91493 6.73833 8.91493 5.16503 7.25521C3.59175 5.59548 3.59175 2.90453 5.16503 1.24479C6.73832 -0.414932 9.28912 -0.414932 10.8624 1.24479Z" fill="#161B25"/>
</svg>
